<?xml version="1.0" encoding="utf-8"?>
<!-- Generator: Adobe Illustrator 26.4.1, SVG Export Plug-In . SVG Version: 6.00 Build 0)  -->
<svg version="1.1" xmlns="http://www.w3.org/2000/svg" xmlns:xlink="http://www.w3.org/1999/xlink" x="0px" y="0px"
	 viewBox="0 0 500 500" style="enable-background:new 0 0 500 500;" xml:space="preserve">
<style type="text/css">
	.st0{opacity:0.7;fill:#FFFFFF;}
	.st1{fill:#8DE4AF;stroke:#05396B;stroke-miterlimit:10;}
	.st2{opacity:0.7;fill:#FFFFFF;stroke:#05396B;stroke-miterlimit:10;}
	.st3{fill:none;stroke:#05396B;stroke-linecap:round;stroke-linejoin:round;stroke-miterlimit:10;}
	.st4{fill:#8DE4AF;stroke:#05396B;stroke-linecap:round;stroke-linejoin:round;stroke-miterlimit:10;}
	.st5{fill:#FFFFFF;stroke:#05396B;stroke-linecap:round;stroke-linejoin:round;stroke-miterlimit:10;}
	.st6{fill:none;stroke:#05396B;stroke-width:2;stroke-linecap:round;stroke-linejoin:round;stroke-miterlimit:10;}
	.st7{fill:none;stroke:#05396B;stroke-linecap:round;stroke-linejoin:round;}
	.st8{fill:none;stroke:#05396B;stroke-linecap:round;stroke-linejoin:round;stroke-dasharray:0.9985,2.9954;}
	.st9{fill:none;stroke:#05396B;stroke-linecap:round;stroke-linejoin:round;stroke-dasharray:0.9981,2.9944;}
	.st10{fill:#05396B;stroke:#05396B;stroke-linecap:round;stroke-linejoin:round;stroke-miterlimit:10;}
	.st11{fill:#05396B;stroke:#05396B;stroke-miterlimit:10;}
	.st12{opacity:0.3;clip-path:url(#XMLID_00000010993232016623120500000002680335710500456334_);fill-opacity:0.7;}
	.st13{opacity:0.3;clip-path:url(#XMLID_00000173853894988141773840000007318523062343149499_);fill-opacity:0.7;}
	.st14{opacity:0.2;clip-path:url(#XMLID_00000055707774298180417190000003323539245127385257_);fill-opacity:0.7;}
	.st15{opacity:0.3;clip-path:url(#XMLID_00000047777914003199319770000011984399247562504072_);fill-opacity:0.7;}
	.st16{opacity:0.3;clip-path:url(#XMLID_00000176044110731879691420000005083548212817967013_);fill-opacity:0.7;}
	.st17{fill:none;stroke:#FFFFFF;stroke-miterlimit:10;}
	.st18{fill:#757575;stroke:#05396B;stroke-linecap:round;stroke-linejoin:round;stroke-miterlimit:10;}
	.st19{fill:#999999;stroke:#05396B;stroke-linecap:round;stroke-linejoin:round;stroke-miterlimit:10;}
	.st20{fill:none;stroke:#05396B;stroke-linecap:round;stroke-linejoin:round;stroke-dasharray:0.978,2.9341;}
	.st21{fill:none;stroke:#05396B;stroke-linecap:round;stroke-linejoin:round;stroke-dasharray:1,3;}
</style>
<g id="Background_Simple">
	<g>
		<path class="st0" d="M67.93,167.09c0,0-27.88,71.99,11.3,144.5c39.17,72.52,119.88,110.8,184.47,143.55
			c64.59,32.75,131.66,16.8,163.53-36.84c31.87-53.64-11.85-91.93-11.9-168.42c-0.05-76.49,11.45-96.74-29.96-161.36
			c-41.41-64.62-143.06-78.93-219.9-31C88.63,105.45,67.93,167.09,67.93,167.09z"/>
	</g>
	<g>
		<path class="st1" d="M68.97,431.66h211.21c0.86-1.36,1.72-2.72,2.59-4.05c22.72-34.59,59.1-59.24,98.83-70.81
			c17.8-5.18,37.08-8.27,51.38-20.06c14.72-12.14,21.48-31.5,24.4-50.34c3.54-22.82,1.63-48.4-13.86-65.53
			c-18.19-20.12-48.67-22.37-72.37-35.56c-40.79-22.7-56.6-74.39-93.71-102.71c-23.43-17.88-55.09-24.81-83.4-20.89
			c-40.19,5.56-78.01,32.5-89.36,71.96c-3.15,10.95-4.41,22.83-3.44,35.41c1.82,23.55,6.88,47.4,2.1,70.53
			c-5.27,25.49-21.85,47.02-31.76,71.09c-12.34,29.97-14.04,63.6-8.76,95.58C64.23,414.83,66.21,423.41,68.97,431.66z"/>
		<path class="st2" d="M68.97,431.66h211.21c0.86-1.36,1.72-2.72,2.59-4.05c22.72-34.59,59.1-59.24,98.83-70.81
			c17.8-5.18,37.08-8.27,51.38-20.06c14.72-12.14,21.48-31.5,24.4-50.34c3.54-22.82,1.63-48.4-13.86-65.53
			c-18.19-20.12-48.67-22.37-72.37-35.56c-40.79-22.7-56.6-74.39-93.71-102.71c-23.43-17.88-55.09-24.81-83.4-20.89
			c-40.19,5.56-78.01,32.5-89.36,71.96c-3.15,10.95-4.41,22.83-3.44,35.41c1.82,23.55,6.88,47.4,2.1,70.53
			c-5.27,25.49-21.85,47.02-31.76,71.09c-12.34,29.97-14.04,63.6-8.76,95.58C64.23,414.83,66.21,423.41,68.97,431.66z"/>
	</g>
</g>
<g id="Floor">
	<line class="st3" x1="41.99" y1="431.66" x2="460.31" y2="431.66"/>
</g>
<g id="Graphics">
	<g>
		<path class="st3" d="M278.96,113.39v-15.7l-11.76-1.01c-0.7-2.48-1.67-4.84-2.91-7.05l7.59-9.02l-11.1-11.1l-9.02,7.59
			c-2.2-1.24-4.57-2.21-7.05-2.91l-1.01-11.76h-15.7l-1.01,11.76c-2.48,0.7-4.84,1.67-7.05,2.91l-9.02-7.59l-11.1,11.1l7.59,9.02
			c-1.24,2.2-2.21,4.57-2.91,7.05l-11.76,1.01v15.7l11.76,1.01c0.7,2.48,1.67,4.84,2.91,7.05l-7.59,9.02l11.1,11.1l9.02-7.59
			c2.2,1.24,4.57,2.21,7.05,2.91l1.01,11.76h15.7l1.01-11.76c2.48-0.7,4.84-1.67,7.05-2.91l9.02,7.59l11.1-11.1l-7.59-9.02
			c1.23-2.2,2.21-4.57,2.91-7.05L278.96,113.39z M235.86,123.78c-10.07,0-18.24-8.17-18.24-18.24c0-10.07,8.17-18.24,18.24-18.24
			c10.07,0,18.24,8.17,18.24,18.24C254.1,115.61,245.93,123.78,235.86,123.78z"/>
		<path class="st3" d="M447.69,266.84v-7.53l-5.64-0.49c-0.34-1.19-0.8-2.32-1.39-3.38l3.64-4.33l-5.32-5.32l-4.33,3.64
			c-1.06-0.59-2.19-1.06-3.38-1.39l-0.49-5.64h-7.53l-0.49,5.64c-1.19,0.34-2.32,0.8-3.38,1.39l-4.33-3.64l-5.32,5.32l3.64,4.33
			c-0.59,1.06-1.06,2.19-1.39,3.38l-5.64,0.49v7.53l5.64,0.49c0.34,1.19,0.8,2.32,1.39,3.38l-3.64,4.33l5.32,5.32l4.33-3.64
			c1.06,0.59,2.19,1.06,3.38,1.39l0.49,5.64h7.53l0.49-5.64c1.19-0.34,2.32-0.8,3.38-1.39l4.33,3.64l5.32-5.32l-3.64-4.33
			c0.59-1.06,1.06-2.19,1.39-3.38L447.69,266.84z M427.02,271.83c-4.83,0-8.75-3.92-8.75-8.75c0-4.83,3.92-8.75,8.75-8.75
			c4.83,0,8.75,3.92,8.75,8.75C435.76,267.91,431.85,271.83,427.02,271.83z"/>
		<g>
			<path class="st3" d="M442.03,129.8c0.34-1.49,0.53-3.03,0.53-4.62c0-11.34-9.19-20.53-20.53-20.53c-1.85,0-3.65,0.25-5.36,0.71
				c-3.38-5.98-9.8-10.03-17.16-10.03c-10.46,0-19.02,8.16-19.66,18.46c-0.97-0.18-1.96-0.29-2.98-0.29
				c-8.28,0-15.09,6.25-15.99,14.28c-4.86,0.11-8.77,4.07-8.77,8.96c0,4.95,4.01,8.97,8.97,8.97h75.29c4.95,0,8.97-4.01,8.97-8.97
				C445.33,133.94,444.04,131.44,442.03,129.8z"/>
			<g>
				<line class="st3" x1="400.63" y1="138.83" x2="400.63" y2="159.58"/>
				<line class="st3" x1="400.63" y1="126.39" x2="400.63" y2="134.68"/>
				<line class="st3" x1="400.63" y1="118.63" x2="400.63" y2="123.07"/>
				<polyline class="st3" points="396.71,157.16 400.63,162.01 404.55,157.16 				"/>
			</g>
		</g>
		<g>
			<path class="st3" d="M212.64,373.15c0.34-1.49,0.53-3.03,0.53-4.62c0-11.34-9.19-20.53-20.53-20.53c-1.85,0-3.65,0.25-5.36,0.71
				c-3.38-5.98-9.8-10.03-17.16-10.03c-10.46,0-19.02,8.16-19.66,18.46c-0.97-0.18-1.96-0.29-2.98-0.29
				c-8.28,0-15.09,6.25-15.99,14.28c-4.86,0.11-8.77,4.07-8.77,8.96c0,4.95,4.01,8.97,8.97,8.97h75.29c4.95,0,8.97-4.01,8.97-8.97
				C215.94,377.29,214.65,374.79,212.64,373.15z"/>
			<g>
				<line class="st3" x1="171.24" y1="385.15" x2="171.24" y2="364.41"/>
				<line class="st3" x1="171.24" y1="397.6" x2="171.24" y2="389.3"/>
				<line class="st3" x1="171.24" y1="405.36" x2="171.24" y2="400.92"/>
				<polyline class="st3" points="175.16,366.83 171.24,361.98 167.32,366.83 				"/>
			</g>
		</g>
	</g>
</g>
<g id="Interface">
	<g>
		<path class="st4" d="M309.17,125.99H49.24v-11.85c0-2.34,1.9-4.24,4.24-4.24h251.45c2.34,0,4.24,1.9,4.24,4.24V125.99z"/>
		<rect x="60.62" y="128.97" class="st5" width="262.71" height="184.87"/>
		<path class="st5" d="M327.35,117.94c0,2.22-1.8,4.02-4.02,4.02s-4.02-1.8-4.02-4.02c0-2.22,1.8-4.02,4.02-4.02
			S327.35,115.72,327.35,117.94z"/>
		<path class="st5" d="M313.19,117.94c0,2.22-1.8,4.02-4.02,4.02c-2.22,0-4.02-1.8-4.02-4.02c0-2.22,1.8-4.02,4.02-4.02
			C311.39,113.92,313.19,115.72,313.19,117.94z"/>
		<path class="st5" d="M299.03,117.94c0,2.22-1.8,4.02-4.02,4.02c-2.22,0-4.02-1.8-4.02-4.02c0-2.22,1.8-4.02,4.02-4.02
			C297.23,113.92,299.03,115.72,299.03,117.94z"/>
		<g>
			<line class="st6" x1="315.37" y1="136.9" x2="304.97" y2="136.9"/>
			<line class="st6" x1="315.37" y1="141.12" x2="304.97" y2="141.12"/>
			<line class="st6" x1="315.37" y1="145.34" x2="304.97" y2="145.34"/>
		</g>
		<g>
			<line class="st6" x1="78.81" y1="245.98" x2="157.54" y2="245.98"/>
			<line class="st6" x1="78.81" y1="252.19" x2="157.54" y2="252.19"/>
			<line class="st6" x1="78.81" y1="258.51" x2="140.89" y2="258.51"/>
		</g>
		<g>
			<g>
				<g>
					<line class="st7" x1="245.76" y1="131.05" x2="245.76" y2="131.55"/>
					<line class="st8" x1="245.76" y1="134.55" x2="245.76" y2="308.78"/>
					<line class="st7" x1="245.76" y1="310.28" x2="245.76" y2="310.78"/>
				</g>
			</g>
			<g>
				<g>
					<line class="st7" x1="63.78" y1="272.38" x2="64.28" y2="272.38"/>
					<line class="st9" x1="67.27" y1="272.38" x2="317.31" y2="272.38"/>
					<line class="st7" x1="318.81" y1="272.38" x2="319.31" y2="272.38"/>
				</g>
			</g>
			<rect x="244.04" y="270.65" class="st5" width="3.45" height="3.45"/>
		</g>
		<g>
			<path class="st4" d="M166.97,58.01h-49.3c-1.2,0-2.18,0.97-2.18,2.18v22.95c0,1.2,0.97,2.18,2.18,2.18h22.13l2.53,9.04l2.53-9.04
				h22.13c1.2,0,2.18-0.97,2.18-2.18V60.19C169.15,58.99,168.17,58.01,166.97,58.01z"/>
			<g>
				<line class="st6" x1="123.7" y1="64.58" x2="160.95" y2="64.58"/>
				<line class="st6" x1="123.7" y1="69.3" x2="160.95" y2="69.3"/>
				<line class="st6" x1="123.7" y1="74.02" x2="160.95" y2="74.02"/>
				<line class="st6" x1="123.7" y1="78.74" x2="151.77" y2="78.74"/>
			</g>
		</g>
		<g>
			<rect x="93.2" y="301.59" class="st10" width="53.66" height="33.63"/>
			<rect x="93.2" y="301.59" class="st4" width="53.66" height="5.11"/>
			<g>
				<line class="st3" x1="98.68" y1="311.02" x2="112.39" y2="311.02"/>
				<line class="st3" x1="105.53" y1="314.84" x2="129.27" y2="314.84"/>
				<line class="st3" x1="102.5" y1="318.41" x2="109.49" y2="318.41"/>
				<line class="st3" x1="105.53" y1="322.62" x2="121.52" y2="322.62"/>
				<line class="st3" x1="98.68" y1="326.45" x2="112.39" y2="326.45"/>
			</g>
		</g>
		<g>
			<line class="st3" x1="231.99" y1="239.24" x2="185.93" y2="239.24"/>
			<path class="st3" d="M232.88,260.54c0,0,0-21.4-23.92-21.4s-23.92,21.4-23.92,21.4"/>
			<circle class="st4" cx="232.88" cy="260.54" r="2.02"/>
			<path class="st4" d="M183.02,260.54c0-1.11,0.9-2.02,2.02-2.02c1.11,0,2.02,0.9,2.02,2.02s-0.9,2.02-2.02,2.02
				C183.93,262.55,183.02,261.65,183.02,260.54z"/>
			<g>
				
					<rect x="231.11" y="237.36" transform="matrix(-1 -1.224647e-16 1.224647e-16 -1 465.7553 478.2645)" class="st4" width="3.54" height="3.54"/>
				
					<rect x="207.19" y="237.36" transform="matrix(-1 -1.224647e-16 1.224647e-16 -1 417.9178 478.2645)" class="st4" width="3.54" height="3.54"/>
				
					<rect x="183.27" y="237.36" transform="matrix(-1 -1.224647e-16 1.224647e-16 -1 370.0803 478.2645)" class="st4" width="3.54" height="3.54"/>
			</g>
		</g>
		<path class="st4" d="M107.43,174.87v-7.07l-5.3-0.46c-0.32-1.12-0.75-2.18-1.31-3.17l3.42-4.06l-5-5l-4.06,3.42
			c-0.99-0.56-2.06-0.99-3.17-1.31l-0.46-5.3h-7.07l-0.46,5.3c-1.12,0.32-2.18,0.75-3.17,1.31l-4.06-3.42l-5,5l3.42,4.06
			c-0.56,0.99-0.99,2.06-1.31,3.17l-5.3,0.46v7.07l5.3,0.46c0.32,1.12,0.75,2.18,1.31,3.17l-3.42,4.06l5,5l4.06-3.42
			c0.99,0.56,2.06,0.99,3.17,1.31l0.46,5.3h7.07l0.46-5.3c1.12-0.32,2.18-0.75,3.17-1.31l4.06,3.42l5-5l-3.42-4.06
			c0.56-0.99,0.99-2.06,1.31-3.17L107.43,174.87z M88.01,179.55c-4.54,0-8.22-3.68-8.22-8.22c0-4.54,3.68-8.22,8.22-8.22
			c4.54,0,8.22,3.68,8.22,8.22C96.23,175.87,92.55,179.55,88.01,179.55z"/>
		<path class="st4" d="M131.47,190.73v-4.84l-3.63-0.31c-0.22-0.77-0.52-1.49-0.9-2.17l2.34-2.78l-3.42-3.42l-2.78,2.34
			c-0.68-0.38-1.41-0.68-2.17-0.9l-0.31-3.63h-4.84l-0.31,3.63c-0.76,0.22-1.49,0.52-2.17,0.9l-2.78-2.34l-3.42,3.42l2.34,2.78
			c-0.38,0.68-0.68,1.41-0.9,2.17l-3.63,0.31v4.84l3.63,0.31c0.22,0.77,0.52,1.49,0.9,2.17l-2.34,2.78l3.42,3.42l2.78-2.34
			c0.68,0.38,1.41,0.68,2.17,0.9l0.31,3.63h4.84l0.31-3.63c0.77-0.22,1.49-0.52,2.17-0.9l2.78,2.34l3.42-3.42l-2.34-2.78
			c0.38-0.68,0.68-1.41,0.9-2.17L131.47,190.73z M118.18,193.93c-3.11,0-5.63-2.52-5.63-5.63c0-3.11,2.52-5.63,5.63-5.63
			c3.11,0,5.63,2.52,5.63,5.63C123.8,191.41,121.28,193.93,118.18,193.93z"/>
		<g>
			<line class="st6" x1="255.64" y1="284.14" x2="294.37" y2="284.14"/>
			<line class="st6" x1="255.64" y1="290.35" x2="294.37" y2="290.35"/>
			<line class="st6" x1="255.64" y1="296.67" x2="277.72" y2="296.67"/>
		</g>
		<path class="st4" d="M204.61,299.25h-20.39c-2.77,0-5.02-2.25-5.02-5.02l0,0c0-2.77,2.25-5.02,5.02-5.02h20.39
			c2.77,0,5.02,2.25,5.02,5.02l0,0C209.63,297,207.38,299.25,204.61,299.25z"/>
		<path class="st4" d="M242.61,299.25h-20.39c-2.77,0-5.02-2.25-5.02-5.02l0,0c0-2.77,2.25-5.02,5.02-5.02h20.39
			c2.77,0,5.02,2.25,5.02,5.02l0,0C247.62,297,245.38,299.25,242.61,299.25z"/>
		<g>
			<rect x="258.47" y="191.97" class="st5" width="43.24" height="43.24"/>
			<line class="st5" x1="258.47" y1="191.97" x2="301.71" y2="235.21"/>
			<line class="st5" x1="301.71" y1="191.97" x2="258.47" y2="235.21"/>
		</g>
		<g>
			<rect x="295.01" y="166.28" class="st10" width="53.66" height="33.63"/>
			<rect x="295.01" y="166.28" class="st4" width="53.66" height="5.11"/>
			<g>
				<line class="st3" x1="300.48" y1="175.7" x2="314.2" y2="175.7"/>
				<line class="st3" x1="307.34" y1="179.53" x2="331.08" y2="179.53"/>
				<line class="st3" x1="304.31" y1="183.1" x2="311.3" y2="183.1"/>
				<line class="st3" x1="307.34" y1="187.31" x2="323.33" y2="187.31"/>
				<line class="st3" x1="300.48" y1="191.13" x2="314.2" y2="191.13"/>
			</g>
		</g>
		<g>
			<polygon class="st5" points="275.43,142.88 275.43,152.97 270.98,157.42 260.89,157.42 260.89,142.88 			"/>
			<polygon class="st5" points="275.43,152.97 270.98,157.42 270.98,152.97 			"/>
		</g>
		<g>
			<polygon class="st5" points="120.8,220.91 120.8,231.01 116.35,235.46 106.26,235.46 106.26,220.91 			"/>
			<polygon class="st5" points="120.8,231.01 116.35,235.46 116.35,231.01 			"/>
		</g>
		<g>
			<polygon class="st5" points="65.85,283.08 65.85,293.17 61.4,297.62 51.31,297.62 51.31,283.08 			"/>
			<polygon class="st5" points="65.85,293.17 61.4,297.62 61.4,293.17 			"/>
		</g>
	</g>
</g>
<g id="Character">
	<g>
		<path class="st5" d="M247.87,221.58c-5.29,0.45-12.01-5.87-12.01-5.87s-1.03,0.99-1.89-0.24c-0.86-1.24-4.59-4.1-4.8-6.58
			c-0.21-2.48,4.19-6.5,4.19-6.5c-3.4,0.93-3.76-1.06-3.76-1.06s5.71-4.72,7.71-4.84c0.78-0.05,4.19,1.91,7.48,4.55
			c3.44,2.77,9.9,12.52,9.9,12.52s21.85,15.87,27.38,19.93c7.29,5.36,15.93,14.87,15.93,14.87s29.02,13.08,36.98,20.27l-10.81,25.62
			c0,0-26.37-17.67-29.01-22.15c-2.64-4.48-5.27-1.79-7.91-4.72c-2.64-2.93-5.17-6.28-5.17-6.28s-6.38-2.8-12.55-9.12
			c-6.17-6.33-11.6-16.01-15.01-21.81C251.1,224.34,247.87,221.58,247.87,221.58z"/>
		<path class="st5" d="M249.48,217.84c0,0-7.87-1.91-8.55-7.1c-0.22-1.69-1.69-3.63-1.69-3.63s-7.35-0.36-6.88-3.35l9.79-0.87
			c0,0,5.37,1.75,8.54,7.18"/>
		<path class="st3" d="M235.86,215.71c0,0,0.49-0.69,0.33-2.12c0,0,2.16-0.39,1.92-2.31c0,0,3.2-0.39,1.14-4.17"/>
		<path class="st3" d="M238.11,211.28c0,0-4.3-3.2-4.79-4.65"/>
		<path class="st3" d="M236.19,213.59c0,0-4.59-2.79-4.67-4.43"/>
		<path class="st3" d="M237.24,199.21c0,0-1.46,2.62-3.87,3.17"/>
		<path class="st3" d="M236.51,200.23c0,0,1.17,0.59,2.16,1.43"/>
		<path class="st11" d="M404.12,288.8c0,0-17.33-7.54-34.9-11.66c-17.57-4.12-45.96-7.78-45.96-7.78s7.82,79.8,5.76,84.6
			c-2.06,4.8-14.42,20.92-14.42,20.92s66.89,26.08,78.55,28.3c11.66,2.22,5.58-38.25,5.58-38.25S410.97,313.49,404.12,288.8z"/>
		<path class="st5" d="M380.11,280.23c0,0,1.59,3.03-2.59,4.57c-10.83,4-22.37,0.47-21.14-3.77c0.47-1.62,3.15,0,2.98-6.05
			c-0.02-0.78-0.3-1.69-0.73-2.66c-0.66-1.5-1.7-3.14-2.75-4.61c-1.83-2.56-3.71-4.63-3.71-4.63s17.19-10.97,29.94,0
			C382.11,263.08,377.37,265.48,380.11,280.23z"/>
		<g>
			<defs>
				<path id="XMLID_529_" d="M401.41,422.36c-6.77,11.03-41.12,16.21-59.87,15.72c-18.74-0.48-72.7-26.03-76.36-31.44
					c-3.39-5.01-11.72-21.57,1.12-31.58c1.02-0.79,2.16-1.54,3.46-2.24c8.79-4.76,67.25,10.25,67.25,10.25s3.62-2.29,4.95-2.12
					c4.08,0.52,6.97,3.82,15.24,6.17c5.77,1.65,21.52-4.69,31.58,0.76c1.1,0.59,2.12,1.32,3.06,2.22
					C401.24,399.08,408.17,411.33,401.41,422.36z"/>
			</defs>
			<use xlink:href="#XMLID_529_"  style="overflow:visible;fill:#8DE4AF;"/>
			<clipPath id="XMLID_00000134236534468031747540000012308193665607325611_">
				<use xlink:href="#XMLID_529_"  style="overflow:visible;"/>
			</clipPath>
			<path style="opacity:0.3;clip-path:url(#XMLID_00000134236534468031747540000012308193665607325611_);fill-opacity:0.7;" d="
				M388.78,387.88c-10.31-0.69-19.5,1.47-25.92,5.26c-7.61,4.5-43.55,21.81-43.55,21.81c0.08-1.86,2.08-5.61,2.08-5.61
				c-3.38-3.01-12.22-5.35-12.22-5.35c-6.85-5.85-34.03-23.3-42.87-28.93c1.02-0.79,2.16-1.54,3.46-2.24
				c8.79-4.76,67.25,10.25,67.25,10.25s3.62-2.29,4.95-2.12c4.08,0.52,6.97,3.82,15.24,6.17
				C362.97,388.77,378.72,382.43,388.78,387.88z"/>
			
				<use xlink:href="#XMLID_529_"  style="overflow:visible;fill:none;stroke:#05396B;stroke-linecap:round;stroke-linejoin:round;stroke-miterlimit:10;"/>
		</g>
		<g>
			<path class="st5" d="M390.87,432.32l0.86,3.77c0,0-2.3,6.53-12.41,7.59s-16.1,3.31-20.96,3.6s-7.69-0.12-7.69-0.12l-0.99-1.48
				L390.87,432.32z"/>
			<g>
				<defs>
					<path id="XMLID_528_" d="M332.16,431.92l17.52,13.75c0,0,13.58-1.08,25.12-3.75l0-0.01c8.3-1.92,15.55-4.68,15.95-8.45
						c0.61-5.74-5.53-7.31-12.82-7.09c-1.36,0.03-2.76,0.14-4.17,0.28c-11.67,1.25-26.51-5.2-26.51-5.2L332.16,431.92z"/>
				</defs>
				<use xlink:href="#XMLID_528_"  style="overflow:visible;fill:#05396B;"/>
				<clipPath id="XMLID_00000120536563633470583660000005992915236586001309_">
					<use xlink:href="#XMLID_528_"  style="overflow:visible;"/>
				</clipPath>
				<path style="opacity:0.3;clip-path:url(#XMLID_00000120536563633470583660000005992915236586001309_);fill-opacity:0.7;" d="
					M390.75,433.32c-3.15,1.24-7.06,2.96-9.74,4.79c0,0-16.27,8.37-41.27-0.25l-7.58-5.95l15.08-10.47c0,0,14.83,6.45,26.51,5.19
					c1.41-0.15,2.81-0.25,4.17-0.28C385.16,426.14,391.25,427.68,390.75,433.32z"/>
				
					<use xlink:href="#XMLID_528_"  style="overflow:visible;fill:none;stroke:#05396B;stroke-linecap:round;stroke-linejoin:round;stroke-miterlimit:10;"/>
			</g>
			<g>
				<defs>
					<path id="XMLID_527_" d="M348.49,437.34c-3.16,0.52,0.31,6.97,4.59,5.01C357.36,440.39,351.65,436.82,348.49,437.34z"/>
				</defs>
				<use xlink:href="#XMLID_527_"  style="overflow:visible;fill:#FFFFFF;"/>
				<clipPath id="XMLID_00000008841353702146175240000009503732840830277293_">
					<use xlink:href="#XMLID_527_"  style="overflow:visible;"/>
				</clipPath>
				<path style="opacity:0.2;clip-path:url(#XMLID_00000008841353702146175240000009503732840830277293_);fill-opacity:0.7;" d="
					M354.42,441.31c-2.16-0.26-4.43-0.65-6.8-1.19c-0.61-1.27-0.47-2.57,0.88-2.78C351.14,436.9,355.6,439.35,354.42,441.31z"/>
				
					<use xlink:href="#XMLID_527_"  style="overflow:visible;fill:none;stroke:#05396B;stroke-linecap:round;stroke-linejoin:round;stroke-miterlimit:10;"/>
			</g>
			<g>
				<defs>
					<path id="XMLID_526_" d="M374.8,441.9c8.3-1.92,15.55-4.68,15.95-8.45c0.61-5.74-5.53-7.31-12.82-7.09
						C377.6,426.67,370.53,433.5,374.8,441.9z"/>
				</defs>
				<use xlink:href="#XMLID_526_"  style="overflow:visible;fill:#FFFFFF;"/>
				<clipPath id="XMLID_00000006700604632158117080000006297483523714633602_">
					<use xlink:href="#XMLID_526_"  style="overflow:visible;"/>
				</clipPath>
				<path style="opacity:0.3;clip-path:url(#XMLID_00000006700604632158117080000006297483523714633602_);fill-opacity:0.7;" d="
					M390.75,433.32c-3.15,1.24-7.06,2.96-9.74,4.79c0,0-2.43,1.25-6.85,2.29c-2.8-7.7,3.46-13.76,3.76-14.04
					C385.16,426.14,391.25,427.68,390.75,433.32z"/>
				
					<use xlink:href="#XMLID_526_"  style="overflow:visible;fill:none;stroke:#05396B;stroke-linecap:round;stroke-linejoin:round;stroke-miterlimit:10;"/>
			</g>
			<g>
				<path class="st5" d="M368.88,434.77c0.02,0,0.03,0,0.05,0c0.48,0.02,0.89-0.35,0.91-0.82c0.17-3.62,2.96-6.56,2.99-6.59
					c0.33-0.35,0.32-0.89-0.03-1.23c-0.34-0.33-0.89-0.32-1.22,0.02c-0.13,0.14-3.26,3.43-3.47,7.71
					C368.08,434.33,368.42,434.73,368.88,434.77z"/>
			</g>
			<g>
				<path class="st5" d="M365.41,434.98c0.02,0,0.05,0,0.07,0c0.48,0.01,0.88-0.37,0.88-0.85c0.07-3.65,2.63-6.82,2.65-6.85
					c0.3-0.37,0.25-0.92-0.12-1.22c-0.37-0.3-0.91-0.25-1.22,0.12c-0.12,0.15-2.96,3.65-3.05,7.92
					C364.62,434.56,364.96,434.93,365.41,434.98z"/>
			</g>
			<g>
				<path class="st5" d="M361.26,434.54c0.01,0,0.01,0,0.02,0c0.48,0.04,0.9-0.31,0.94-0.79c0.27-3.04,2.85-6.92,2.88-6.96
					c0.27-0.4,0.16-0.94-0.24-1.2c-0.4-0.27-0.94-0.16-1.2,0.24c-0.12,0.17-2.86,4.29-3.16,7.78
					C360.44,434.08,360.79,434.49,361.26,434.54z"/>
			</g>
			<g>
				<path class="st5" d="M357.34,434.13c0.08,0.01,0.16,0.01,0.23-0.01c0.47-0.08,0.79-0.53,0.71-1c-0.62-3.68,2.8-6.84,2.84-6.87
					c0.35-0.32,0.38-0.87,0.06-1.22c-0.32-0.35-0.87-0.38-1.22-0.06c-0.17,0.15-4.16,3.81-3.39,8.44
					C356.64,433.8,356.96,434.09,357.34,434.13z"/>
			</g>
			<g>
				<path class="st5" d="M353.08,433.1c0.09,0.01,0.19,0,0.29-0.02c0.47-0.11,0.76-0.57,0.65-1.04c-0.75-3.28,2.48-6.99,2.51-7.03
					c0.32-0.36,0.28-0.91-0.08-1.22c-0.36-0.32-0.9-0.28-1.22,0.07c-0.16,0.18-3.86,4.41-2.91,8.57
					C352.41,432.81,352.72,433.07,353.08,433.1z"/>
			</g>
		</g>
		<g>
			<path class="st5" d="M262.97,426.68l-1.26,3.66c0,0,1.6,6.73,11.55,8.85c9.95,2.12,15.66,4.98,20.46,5.78
				c4.8,0.8,7.66,0.69,7.66,0.69l1.14-1.37L262.97,426.68z"/>
			<g>
				<defs>
					<path id="XMLID_525_" d="M321.39,432.45l-18.86,11.83c0,0-13.39-2.5-24.58-6.37v-0.01c-8.05-2.78-14.97-6.28-14.97-10.08
						c0-5.77,6.27-6.69,13.5-5.7c1.35,0.17,2.73,0.42,4.12,0.72c11.48,2.47,26.91-2.38,26.91-2.38L321.39,432.45z"/>
				</defs>
				<use xlink:href="#XMLID_525_"  style="overflow:visible;fill:#05396B;"/>
				<clipPath id="XMLID_00000064348693852891849730000003334628898222196381_">
					<use xlink:href="#XMLID_525_"  style="overflow:visible;"/>
				</clipPath>
				<path style="opacity:0.3;clip-path:url(#XMLID_00000064348693852891849730000003334628898222196381_);fill-opacity:0.7;" d="
					M321.39,432.45l-11.1,6.96c-11.14-3.35-18.39-10.45-22.53-15.87c9.84,0.03,19.73-3.09,19.73-3.09L321.39,432.45z"/>
				
					<use xlink:href="#XMLID_525_"  style="overflow:visible;fill:none;stroke:#05396B;stroke-linecap:round;stroke-linejoin:round;stroke-miterlimit:10;"/>
			</g>
			<path class="st5" d="M277.94,437.9c-8.05-2.78-14.97-6.28-14.97-10.08c0-5.77,6.27-6.69,13.5-5.7
				C276.76,422.45,283.07,429.99,277.94,437.9z"/>
			<g>
				<path class="st5" d="M284.58,431.43c-0.02,0-0.03,0-0.05,0c-0.48-0.03-0.84-0.44-0.82-0.91c0.21-3.61-2.25-6.84-2.28-6.87
					c-0.29-0.38-0.22-0.92,0.15-1.22c0.38-0.29,0.92-0.22,1.21,0.15c0.12,0.15,2.88,3.75,2.64,8.03
					C285.42,431.07,285.04,431.43,284.58,431.43z"/>
			</g>
			<g>
				<path class="st5" d="M288.01,432c-0.02,0-0.05,0-0.07,0c-0.48-0.04-0.83-0.46-0.79-0.94c0.31-3.64-1.9-7.06-1.92-7.1
					c-0.26-0.4-0.15-0.94,0.25-1.2c0.4-0.26,0.94-0.15,1.2,0.25c0.1,0.16,2.56,3.94,2.2,8.19C288.83,431.66,288.45,432,288.01,432z"
					/>
			</g>
			<g>
				<path class="st5" d="M292.18,432c-0.01,0-0.01,0-0.02,0c-0.48-0.01-0.86-0.4-0.85-0.88c0.05-3.05-2.11-7.18-2.13-7.22
					c-0.22-0.42-0.06-0.95,0.36-1.17c0.42-0.23,0.95-0.06,1.17,0.36c0.1,0.19,2.39,4.57,2.33,8.07
					C293.04,431.62,292.65,432,292.18,432z"/>
			</g>
			<g>
				<path class="st5" d="M296.12,432c-0.08,0-0.15-0.01-0.23-0.03c-0.46-0.13-0.73-0.61-0.6-1.07c1-3.6-2.07-7.09-2.1-7.13
					c-0.32-0.36-0.29-0.9,0.07-1.22c0.36-0.32,0.9-0.29,1.22,0.07c0.15,0.17,3.74,4.23,2.48,8.75
					C296.85,431.75,296.5,432,296.12,432z"/>
			</g>
			<g>
				<path class="st5" d="M300.47,431.43c-0.09,0-0.19-0.02-0.28-0.05c-0.45-0.16-0.69-0.65-0.54-1.1c1.09-3.18-1.73-7.21-1.76-7.25
					c-0.28-0.39-0.19-0.93,0.2-1.21c0.39-0.28,0.93-0.19,1.21,0.2c0.14,0.19,3.38,4.79,1.99,8.83
					C301.16,431.2,300.83,431.43,300.47,431.43z"/>
			</g>
			<path class="st5" d="M304.58,436.12c3.09,0.84-1.04,6.9-5.09,4.5C295.44,438.22,301.5,435.28,304.58,436.12z"/>
		</g>
		<path class="st4" d="M268.92,403.99c4.64,6.49,18.36,13.66,32.04,19.58c1.47,2.43,4.46,6.98,8.58,11.21
			c8.42,8.66,11.85,3.81,11.85,3.81s5.32-0.6,13.17-1.67c0.52,1.01,1.72,2.59,3.97,2.23c1.02-0.16,2.99-1.62,5.21-3.55
			c19.83-2.98,46.74-7.96,54.01-13.82"/>
		<g>
			<path class="st3" d="M389.98,391.64c-3.43-3.77-6.86-3.94-14.06-3.43c0,0-18.79,5.96-31.89,13.89
				c-13.1,7.93-32.24,16.26-32.24,16.26s-5.83-1.69-9.89,0c0,0-2.85,0.22-0.94,5.2"/>
			<path class="st3" d="M398.72,414.17c0,0,0.1,5.81-8.14,9.83"/>
			<path class="st3" d="M307.84,389.93c0,0,13.01,9.4,15.6,15.6c0,0,5,2.13,7.39,3.81"/>
			<path class="st3" d="M324.39,397.74c0.87,2.7,1.2,5.64,0.46,8.41"/>
			<path class="st3" d="M321.39,391.64c0.71,1.03,1.33,2.12,1.86,3.25"/>
			<path class="st3" d="M339.91,390.78c0,0,4.35,5.81,5.43,10.54"/>
			<path class="st3" d="M364.14,425.94c1.62-0.1,3.23-0.28,4.82-0.59"/>
			<path class="st3" d="M323.33,421.77c11.87,2.27,24.88,4,37.4,4.29"/>
		</g>
		<path class="st5" d="M411.32,333.59c0,0-2.35,40.95-5.12,43.35s-7.14,3.09-15.42,3.77c-8.27,0.69-44.85,2.93-44.85,2.93
			l-3.91-11.75c0,0,19.45-1.97,28.08-5.15c8.63-3.18,19.87-5.26,19.87-5.26s-1.63-10.31-1.63-14.75s0-15.73,0-20.88"/>
		<path class="st11" d="M404.12,288.8c8.92,5.49,11.55,18.18,8.46,45.27c0,0,2.63,3.2-1.26,4.8c0,0-14.56-5.45-21.34-1.69
			c-6.78,3.75-5.02-5.19-5.02-5.19s-2.79-24.92,3.38-29.42"/>
		<path class="st17" d="M387.54,298.75c0,0-8.57,8.92-1.03,31.44c0,0-1.05,4.1-1.04,5.6c0.01,1.5,3.88,3.09,3.88,3.09"/>
		<path class="st3" d="M379.72,288.3c0,0-13.29,5.09-23.86-0.55c-6.27-3.34-3.69-8.71-3.69-8.71"/>
		<g>
			<path class="st18" d="M284.15,391.66h72.34c1.63,0,3.26-0.21,4.84-0.62l14.27-3.74c0.41-0.11,0.69-0.47,0.69-0.89l0,0
				c0-0.51-0.41-0.92-0.92-0.92h-94.2c-0.51,0-0.92,0.41-0.92,0.92v1.35C280.24,389.91,281.99,391.66,284.15,391.66z"/>
			<path class="st19" d="M276.98,388.06h72.54c1.27,0,2.02-1.04,1.69-2.33l-13.46-52.33c-0.33-1.29-1.62-2.33-2.89-2.33h-72.54
				c-1.27,0-2.02,1.04-1.69,2.33l13.46,52.33C274.42,387.02,275.71,388.06,276.98,388.06z"/>
			<line class="st3" x1="264.88" y1="332.94" x2="263.51" y2="332.94"/>
			<line class="st3" x1="275.51" y1="332.94" x2="268.43" y2="332.94"/>
			<path class="st3" d="M347.78,381.45l-11.88-46.18c-0.33-1.29-1.63-2.33-2.89-2.33h-55.89"/>
			<line class="st3" x1="348.81" y1="385.47" x2="348.51" y2="384.32"/>
			<path class="st5" d="M298.81,360.89c0.05,0.41,0.13,0.83,0.25,1.25c0.93,3.15,3.88,5.06,6.59,4.27c2.71-0.8,4.16-4,3.24-7.15
				c-0.94-3.16-3.89-5.06-6.6-4.27c-0.32,0.1-0.63,0.23-0.92,0.39C301.61,357.71,300.6,359.89,298.81,360.89z"/>
		</g>
		<path class="st11" d="M330.83,262.82c-6.28-0.69-9.71-6.65-13.48-7.58c-3.77-0.93-6.18-1.99-6.18-1.99s-1.3-4.55-3.25-2.96
			c-1.94,1.59-4.51,35.49-2,34.43c2.51-1.06,2.51,2.94,2.51,2.94l23.31,20.55l19.54-34.6C351.29,273.6,337.11,263.51,330.83,262.82z
			"/>
		<g>
			<g>
				<g>
					<polyline class="st7" points="140.89,141.89 140.89,141.39 141.39,141.39 					"/>
					<line class="st20" x1="144.32" y1="141.39" x2="228.92" y2="141.39"/>
					<polyline class="st7" points="230.39,141.39 230.89,141.39 230.89,141.89 					"/>
					<line class="st21" x1="230.89" y1="144.89" x2="230.89" y2="199.39"/>
					<polyline class="st7" points="230.89,200.89 230.89,201.39 230.39,201.39 					"/>
					<line class="st20" x1="227.45" y1="201.39" x2="142.85" y2="201.39"/>
					<polyline class="st7" points="141.39,201.39 140.89,201.39 140.89,200.89 					"/>
					<line class="st21" x1="140.89" y1="197.89" x2="140.89" y2="143.39"/>
				</g>
			</g>
			<circle class="st4" cx="185.89" cy="141.39" r="1.48"/>
			<circle class="st4" cx="140.89" cy="171.39" r="1.48"/>
			<circle class="st4" cx="185.89" cy="201.39" r="1.48"/>
			<circle class="st4" cx="230.89" cy="171.39" r="1.48"/>
			<rect x="229.16" y="199.67" class="st4" width="3.45" height="3.45"/>
			<rect x="229.16" y="139.67" class="st4" width="3.45" height="3.45"/>
			<rect x="139.16" y="199.67" class="st4" width="3.45" height="3.45"/>
			<rect x="139.16" y="139.67" class="st4" width="3.45" height="3.45"/>
		</g>
		<g>
			<rect x="146.86" y="146.7" class="st5" width="78.33" height="49.77"/>
			<polygon class="st4" points="225.19,181.77 216.48,190.48 192.92,166.92 183.01,176.83 167.21,161.03 146.86,181.37 
				146.86,196.47 225.19,196.47 			"/>
			<circle class="st4" cx="208.96" cy="160.83" r="5.53"/>
		</g>
		<path class="st11" d="M365.68,265.42c0,0-0.85,6.45-7.05,6.9c-0.66-1.5-1.7-3.14-2.75-4.61
			C359.99,266.39,365.68,265.42,365.68,265.42z"/>
		<g>
			<path class="st5" d="M378.89,265.87c0,0,10.37,1.27,14.71-12.65c4.34-13.92,0.93-24.41-16.24-29.46
				c-9.52-2.8-19.03-0.55-22.46,6.65c-2.94,6.17-1.55,11.31-2.23,13.38c-0.76,2.32-7.77,4.29-7.77,5.88c0,1.32,3.89,3.55,3.89,3.55
				l-1.14,3.46l1.08,0.57c0,0-1.99,7.79-1.08,10.54c0.67,2.01,18.23,2.84,19.6-2.13"/>
			<path class="st3" d="M354.99,235.47c0,0,3.43,0.86,4.37,2.66"/>
			<path class="st11" d="M355.6,243.38c-0.15,1.01,0.08,1.88,0.52,1.94c0.43,0.06,0.9-0.7,1.05-1.71c0.15-1.01-0.08-1.88-0.52-1.94
				C356.22,241.6,355.75,242.37,355.6,243.38z"/>
			<path class="st3" d="M348.72,257.25c0,0,5.58,2.14,7.66,0.85"/>
			<path class="st3" d="M350.68,242.58c-0.42,2.23,0.09,4.2,1.12,4.39c1.03,0.19,2.2-1.46,2.62-3.7c0.42-2.23-0.09-4.2-1.12-4.39
				C352.27,238.69,351.1,240.35,350.68,242.58z"/>
			<path class="st11" d="M394.06,231.19c0,0-0.8-5.83-6.52-10.06c-5.72-4.23-12.57-5.14-12.57-5.14s3.32,1.45,4.57,3.35
				c0,0-8.57-6.44-18.75-2.21c-10.17,4.23-8.92,15.22-8.92,15.22l1.49-2.88c0,0-0.17,3.43,1.63,4.69c0,0,1.09-3.32,2.19-4.8
				c0,0,2.7,8.12,10.13,10.86c0,0-0.8-1.6-0.11-4c0,0,4.11,8.92,2.91,13.26l1.32,2.29c0,0,4.73-4.79,8.57-0.8
				c2.21,2.29-4.23,10.97-5.14,10.97l3.89,5.72c0,0,9.72,1.38,15.32-9.14c5.6-10.52,4.23-15.02,4.23-15.02s1.83,2.56,2.06,4.04
				C400.34,247.53,401.95,236.22,394.06,231.19z"/>
			<path class="st5" d="M371.19,252.79c0,0,2.98-10.09,9.38-6.53s1.82,8.93-0.46,10.99c-2.29,2.06-4,5.83-5.49,5.83
				c-1.49,0-1.83-1.83-1.83-1.83"/>
			<line class="st3" x1="354.42" y1="243.28" x2="372.22" y2="246.97"/>
		</g>
	</g>
</g>
</svg>
