        <svg
            width="16"
            height="80"
            viewBox="0 0 16 80"
            fill="none"
            xmlns="http://www.w3.org/2000/svg"
        >
            <path
                d="M9 1C9 0.447715 8.55228 0 8 0C7.44772 0 7 0.447715 7 1L9 1ZM7.29289 79.7071C7.68342 80.0976 8.31658 80.0976 8.70711 79.7071L15.0711 73.3431C15.4616 72.9526 15.4616 72.3195 15.0711 71.9289C14.6805 71.5384 14.0474 71.5384 13.6569 71.9289L8 77.5858L2.34315 71.9289C1.95262 71.5384 1.31946 71.5384 0.928932 71.9289C0.538408 72.3195 0.538408 72.9526 0.928932 73.3431L7.29289 79.7071ZM7 1L7 79H9L9 1L7 1Z"
                fill="black"
            />
        </svg>