<svg width="84" height="56" viewBox="0 0 84 56" fill="none" xmlns="http://www.w3.org/2000/svg">
<g clip-path="url(#clip0_6_23)">
<path d="M83.4684 7.2842C83.1497 5.41331 82.7282 3.56163 82.2057 1.73768C80.4211 1.20276 78.5997 0.800723 76.7564 0.534819C71.0955 -0.37146 65.3102 -0.103867 59.756 1.32115C54.2018 2.74616 48.9962 5.29848 44.4591 8.82118L42.0667 10.8259C41.3357 10.1577 40.5382 9.48944 39.7408 8.88801C32.3809 3.1005 23.2992 -0.0298934 13.9561 0.000215177C11.7308 0.0121649 9.5095 0.190861 7.3106 0.534819C5.4234 0.830407 3.55836 1.25461 1.72836 1.8045C1.20589 3.60588 0.784345 5.43532 0.465708 7.2842C-0.381519 12.9902 -0.0704815 18.8096 1.38006 24.3914C2.83059 29.9732 5.39056 35.2017 8.90553 39.7614C9.57008 40.6301 10.2346 41.432 10.8992 42.1671C11.3644 42.6349 11.8296 43.1695 12.2947 43.6373C12.627 43.9046 12.8928 44.2387 13.2251 44.506C13.5574 44.7733 13.9561 45.1743 14.2884 45.5084C21.3778 51.7423 30.3374 55.412 39.7408 55.9332C40.4718 55.9332 41.2028 56 41.9338 56C42.7977 56 43.5952 56 44.4591 55.9332C45.8421 55.8802 47.2194 55.7238 48.5793 55.4654C50.4227 55.1995 52.244 54.7974 54.0287 54.2625C59.7789 52.5388 65.0859 49.574 69.5792 45.5752C69.9779 45.2411 70.3102 44.907 70.7089 44.5728C71.1077 44.2387 71.307 43.9714 71.6393 43.7041C72.171 43.1695 72.6361 42.6349 73.1013 42.1671C73.7659 41.432 74.4304 40.6301 75.0285 39.8282C80.739 32.3941 83.8881 23.2929 84 13.8999C83.9881 11.6844 83.8104 9.4729 83.4684 7.2842ZM41.9272 17.856C42.7711 18.8985 43.6151 19.9409 44.3927 21.0503C46.0419 23.4651 47.4026 26.067 48.4464 28.802C47.1028 28.599 45.7498 28.4652 44.3927 28.4011C43.5952 28.3342 42.7977 28.3342 42.0003 28.3342C41.2028 28.3342 40.4718 28.4011 39.6743 28.4011C38.2123 28.4679 36.8167 28.6684 35.3547 28.8688C36.4345 25.9733 37.8867 23.2324 39.6743 20.7161C40.3676 19.7182 41.1199 18.7631 41.9272 17.856ZM28.244 44.506C28.3078 45.8929 28.4409 47.2757 28.6427 48.6492C25.8997 47.5766 23.2904 46.1861 20.8675 44.506C19.7828 43.763 18.74 42.9598 17.7441 42.1003C18.7409 41.2984 19.7377 40.4965 20.7346 39.7614C23.21 38.0328 25.8886 36.6188 28.7092 35.5514C28.5098 36.9547 28.3769 38.3581 28.244 39.7614C28.1776 40.5633 28.1776 41.3652 28.1776 42.1671C28.1776 42.969 28.1776 43.7709 28.244 44.506ZM14.3549 38.759C8.23335 31.9213 4.86846 23.0333 4.91821 13.8331C4.91688 11.1179 5.18402 8.40927 5.71568 5.74721C8.37525 5.14651 11.0982 4.87719 13.8232 4.9453C22.9746 4.88298 31.8177 8.26825 38.611 14.4345C34.633 18.9774 31.6851 24.3359 29.9719 30.1385C24.1829 31.7826 18.8423 34.7306 14.3549 38.759ZM50.8388 44.506C50.7082 46.4382 50.4418 48.3587 50.0414 50.253C48.1791 50.651 46.2917 50.919 44.3927 51.0549C43.5952 51.1217 42.7977 51.1217 42.0003 51.1217C41.2028 51.1217 40.4718 51.1217 39.6743 51.0549C37.6869 50.9236 35.7108 50.6557 33.7598 50.253C33.3594 48.3587 33.0929 46.4382 32.9623 44.506C32.8959 43.7041 32.8959 42.969 32.8959 42.1671C32.8959 41.3652 32.9623 40.5633 33.0288 39.6946C33.1489 37.7572 33.4379 35.8341 33.8927 33.9476C35.8213 33.5449 37.7754 33.277 39.7408 33.1457C40.4718 33.0788 41.2028 33.0788 42.0003 33.0788C42.7977 33.0788 43.6616 33.0788 44.5256 33.1457C46.4031 33.277 48.2688 33.545 50.1078 33.9476C50.5082 35.8419 50.7747 37.7624 50.9053 39.6946C50.9717 40.4965 50.9717 41.2984 50.9717 42.1003C50.9717 42.9022 50.9053 43.7709 50.8388 44.506ZM63.133 44.506C60.7022 46.2123 58.0677 47.6043 55.2913 48.6492C55.4907 47.2459 55.69 45.9093 55.7565 44.506C55.823 43.7041 55.823 42.969 55.8894 42.1671C55.9559 41.3652 55.823 40.5633 55.823 39.7614C55.7373 38.3733 55.5821 36.9905 55.3578 35.6182C58.1008 36.6908 60.7101 38.0813 63.133 39.7614C64.1961 40.505 65.2167 41.3082 66.19 42.1671C65.216 43.0045 64.1954 43.7854 63.133 44.506ZM69.6457 38.6922C65.1315 34.6718 59.8031 31.685 54.0287 29.938C52.2883 24.1328 49.3183 18.7753 45.323 14.234C52.0722 8.08995 60.8743 4.72606 69.9779 4.81165C72.748 4.79944 75.5111 5.09074 78.2184 5.68038C78.8046 8.33497 79.0944 11.0471 79.0823 13.7663C79.1749 22.9742 75.8043 31.8774 69.6457 38.6922Z" fill="#EDF5E0"/>
</g>
<defs>
<clipPath id="clip0_6_23">
<rect width="84" height="56" fill="white"/>
</clipPath>
</defs>
</svg>
