<?xml version="1.0" encoding="utf-8"?>
<!-- Generator: Adobe Illustrator 26.4.1, SVG Export Plug-In . SVG Version: 6.00 Build 0)  -->
<svg version="1.1" id="Layer_1" xmlns="http://www.w3.org/2000/svg" xmlns:xlink="http://www.w3.org/1999/xlink" x="0px" y="0px"
	 viewBox="0 0 66 45" style="enable-background:new 0 0 66 45;" xml:space="preserve">
<style type="text/css">
	.st0{fill:#30B4AC;}
</style>
<g>
	<path class="st0" d="M0.4,5.9c0.3-1.5,0.6-3,1-4.5c1.4-0.4,2.8-0.8,4.3-1c4.4-0.7,9-0.5,13.4,0.6c4.4,1.1,8.5,3.2,12,6l1.9,1.6
		c0.6-0.5,1.2-1.1,1.8-1.6C40.6,2.5,47.7,0,55,0c1.7,0,3.5,0.2,5.2,0.4c1.5,0.2,2.9,0.6,4.4,1c0.4,1.4,0.7,2.9,1,4.4
		c0.7,4.6,0.4,9.3-0.7,13.7c-1.1,4.5-3.2,8.7-5.9,12.4c-0.5,0.7-1,1.3-1.6,1.9c-0.4,0.4-0.7,0.8-1.1,1.2c-0.3,0.2-0.5,0.5-0.7,0.7
		c-0.3,0.2-0.6,0.5-0.8,0.8c-5.6,5-12.6,8-20,8.4c-0.6,0-1.1,0.1-1.7,0.1c-0.7,0-1.3,0-2-0.1c-1.1,0-2.2-0.2-3.2-0.4
		c-1.4-0.2-2.9-0.5-4.3-1c-4.5-1.4-8.7-3.8-12.2-7c-0.3-0.3-0.6-0.5-0.9-0.8c-0.3-0.3-0.5-0.5-0.7-0.7c-0.4-0.4-0.8-0.9-1.1-1.2
		C8,33.3,7.5,32.6,7,32c-4.5-6-7-13.3-7-20.8C0,9.4,0.1,7.6,0.4,5.9z M33.1,14.3c-0.7,0.8-1.3,1.7-1.9,2.6c-1.3,1.9-2.4,4-3.2,6.2
		c1.1-0.2,2.1-0.3,3.2-0.3c0.6-0.1,1.3-0.1,1.9-0.1c0.6,0,1.2,0.1,1.8,0.1c1.1,0.1,2.2,0.2,3.4,0.4c-0.8-2.3-2-4.5-3.4-6.6
		C34.3,15.8,33.7,15.1,33.1,14.3z M43.8,35.8c-0.1,1.1-0.2,2.2-0.3,3.3c2.2-0.9,4.2-2,6.1-3.3c0.9-0.6,1.7-1.2,2.5-1.9
		c-0.8-0.6-1.6-1.3-2.3-1.9c-1.9-1.4-4-2.5-6.3-3.4c0.2,1.1,0.3,2.3,0.4,3.4c0.1,0.6,0.1,1.3,0.1,1.9S43.9,35.2,43.8,35.8z
		 M54.7,31.1c4.8-5.5,7.5-12.6,7.4-20c0-2.2-0.2-4.4-0.6-6.5c-2.1-0.5-4.2-0.7-6.4-0.6C47.9,3.9,41,6.6,35.7,11.6
		c3.1,3.7,5.4,8,6.8,12.6C47,25.5,51.2,27.9,54.7,31.1z M26.1,35.8c0.1,1.6,0.3,3.1,0.6,4.6c1.5,0.3,2.9,0.5,4.4,0.6
		c0.6,0.1,1.3,0.1,1.9,0.1c0.6,0,1.2,0,1.8-0.1c1.6-0.1,3.1-0.3,4.6-0.6c0.3-1.5,0.5-3.1,0.6-4.6c0.1-0.6,0.1-1.2,0.1-1.9
		s-0.1-1.3-0.1-2c-0.1-1.6-0.3-3.1-0.7-4.6c-1.5-0.3-3.1-0.5-4.6-0.6c-0.6-0.1-1.1-0.1-1.8-0.1c-0.6,0-1.3,0-2,0.1
		c-1.5,0.1-2.9,0.3-4.4,0.6c-0.3,1.5-0.5,3.1-0.6,4.6C26,32.5,26,33.2,26,33.8C26,34.5,26,35.2,26.1,35.8z M16.4,35.8
		c1.9,1.4,4,2.5,6.2,3.3c-0.2-1.1-0.3-2.2-0.4-3.3c-0.1-0.6-0.1-1.2-0.1-1.9c-0.1-0.6,0.1-1.3,0.1-1.9c0.1-1.1,0.2-2.2,0.4-3.3
		c-2.2,0.9-4.2,2-6.1,3.3c-0.8,0.6-1.6,1.2-2.4,1.9C14.8,34.6,15.6,35.2,16.4,35.8z M11.3,31.1c3.5-3.2,7.7-5.6,12.3-7
		c1.4-4.7,3.7-9,6.8-12.6C25.1,6.5,18.2,3.8,11,3.9c-2.2,0-4.3,0.2-6.5,0.7c-0.5,2.1-0.7,4.3-0.7,6.5C3.8,18.5,6.4,25.6,11.3,31.1z"
		/>
</g>
</svg>
